<?xml version="1.0" standalone="no"?>
<!DOCTYPE svg PUBLIC "-//W3C//DTD SVG 20010904//EN"
 "http://www.w3.org/TR/2001/REC-SVG-20010904/DTD/svg10.dtd">
<svg version="1.0" xmlns="http://www.w3.org/2000/svg"
 width="1920.000000pt" height="1080.000000pt" viewBox="0 0 1920.000000 1080.000000"
 preserveAspectRatio="xMidYMid meet">
<metadata>
Created by potrace 1.16, written by Peter Selinger 2001-2019
</metadata>
<g transform="translate(0.000000,1080.000000) scale(0.100000,-0.100000)"
fill="#000000" stroke="none">
<path d="M0 8719 l0 -2081 43 7 c160 26 538 142 817 252 91 36 190 76 220 90
125 57 370 178 435 216 97 55 155 87 190 105 17 8 64 38 105 67 41 28 104 69
140 91 71 43 314 221 452 331 190 151 449 394 598 559 63 70 126 139 140 153
45 48 199 244 322 413 121 164 348 519 348 542 0 3 14 29 31 58 41 68 170 327
221 443 96 217 166 401 224 590 14 44 33 107 43 140 11 33 22 70 26 83 l6 22
-2180 0 -2181 0 0 -2081z"/>
<path d="M9440 10681 c0 -263 91 -616 231 -893 260 -516 730 -927 1267 -1107
466 -156 910 -166 1372 -30 221 65 404 151 605 284 477 315 813 805 940 1371
28 125 65 381 65 452 l0 42 -2240 0 -2240 0 0 -119z"/>
<path d="M19140 4153 c-94 -17 -262 -64 -525 -149 -112 -37 -396 -146 -495
-191 -125 -57 -370 -178 -435 -216 -97 -55 -155 -87 -190 -105 -16 -8 -64 -38
-105 -67 -41 -28 -104 -69 -140 -91 -71 -43 -314 -221 -452 -331 -190 -151
-449 -394 -598 -559 -63 -70 -126 -139 -140 -153 -45 -48 -199 -244 -322 -413
-121 -164 -348 -519 -348 -542 0 -3 -14 -29 -31 -58 -41 -68 -170 -327 -221
-443 -96 -217 -166 -401 -224 -590 -14 -44 -33 -107 -43 -140 -11 -33 -22 -70
-26 -82 l-6 -23 2180 0 2181 0 0 2080 c0 1975 -1 2080 -17 2079 -10 -1 -29 -4
-43 -6z"/>
<path d="M7350 2240 c-248 -18 -538 -91 -765 -193 -465 -207 -855 -580 -1084
-1035 -140 -277 -231 -630 -231 -893 l0 -119 2240 0 2240 0 0 43 c0 70 -37
326 -65 451 -127 566 -463 1056 -940 1371 -263 174 -512 275 -835 339 -107 22
-373 49 -435 44 -11 0 -67 -4 -125 -8z"/>
</g>
</svg>
